$MeshFormat
2.2 0 8
$EndMeshFormat
$PhysicalNames
6
1 1 ".top"
1 2 ".bottom"
1 3 ".left"
1 4 ".right"
1 5 "fracture"
2 6 "rock"
$EndPhysicalNames
$Nodes
533
1 0.8999999999997368 0 0
2 0.9499999999998684 0 0
3 0.8499999999996051 0 0
4 0.7499999999993416 0 0
5 0.6499999999990784 0 0
6 0.5499999999988205 0 0
7 0.4499999999988346 0 0
8 0.3499999999991207 0 0
9 0.2499999999994121 0 0
10 0.1499999999996863 0 0
11 0.04999999999990733 0 0
12 0 0 0
13 0.7999999999994734 0 0
14 0.69999999999921 0 0
15 0.5999999999989468 0 0
16 0.4999999999986943 0 0
17 0.3999999999989749 0 0
18 0.2999999999992664 0 0
19 0.1999999999995579 0 0
20 0.09999999999981467 0 0
21 1 0 0
22 1 0.04999999999990733 0
23 1 0.9499999999998684 0
24 1 0.8499999999996051 0
25 1 0.7499999999993416 0
26 1 0.6499999999990784 0
27 1 0.5499999999988205 0
28 1 0.4499999999988346 0
29 1 0.3499999999991207 0
30 1 0.2499999999994121 0
31 1 0.1499999999996863 0
32 1 1 0
33 1 0.8999999999997368 0
34 1 0.7999999999994734 0
35 1 0.69999999999921 0
36 1 0.5999999999989468 0
37 1 0.4999999999986943 0
38 1 0.3999999999989749 0
39 1 0.2999999999992664 0
40 1 0.1999999999995579 0
41 1 0.09999999999981467 0
42 0.9499999999997918 1 0
43 0.050000000000208 1 0
44 0.1500000000006241 1 0
45 0.2500000000010403 1 0
46 0.3500000000014564 1 0
47 0.4500000000018616 1 0
48 0.5500000000017228 1 0
49 0.6500000000010402 1 0
50 0.7500000000003466 1 0
51 0.8499999999997917 1 0
52 0 1 0
53 0.100000000000416 1 0
54 0.2000000000008322 1 0
55 0.3000000000012483 1 0
56 0.4000000000016644 1 0
57 0.5000000000020587 1 0
58 0.6000000000013869 1 0
59 0.7000000000006934 1 0
60 0.7999999999999998 1 0
61 0.8999999999995836 1 0
62 0 0.9499999999997918 0
63 0 0.050000000000208 0
64 0 0.1500000000006241 0
65 0 0.2500000000010403 0
66 0 0.3500000000014564 0
67 0 0.4500000000018616 0
68 0 0.5500000000017228 0
69 0 0.6500000000010402 0
70 0 0.7500000000003466 0
71 0 0.8499999999997917 0
72 0 0.8999999999995836 0
73 0 0.100000000000416 0
74 0 0.2000000000008322 0
75 0 0.3000000000012483 0
76 0 0.4000000000016644 0
77 0 0.5000000000020587 0
78 0 0.6000000000013869 0
79 0 0.7000000000006934 0
80 0 0.7999999999999998 0
81 0.25 0.5 0
82 0.75 0.5 0
83 0.3500000000005549 0.5 0
84 0.4500000000004162 0.5 0
85 0.5500000000002775 0.5 0
86 0.6500000000001387 0.5 0
87 0.3000000000002775 0.5 0
88 0.4000000000004855 0.5 0
89 0.5000000000003468 0.5 0
90 0.6000000000002081 0.5 0
91 0.7000000000000693 0.5 0
92 0.7491826982392498 0.9138693290139832 0
93 0.5500000000017589 0.9133974596220723 0
94 0.3499999999990664 0.08660254037827959 0
95 0.5499999999988737 0.08660254037849059 0
96 0.749999999999325 0.08660254037874826 0
97 0.3500000000016414 0.9133974596216335 0
98 0.08962961249560558 0.7586725654709496 0
99 0.08962961249548015 0.2413274345299924 0
100 0.9098985181125807 0.7594898672319458 0
101 0.9103703875043442 0.2413274345292363 0
102 0.1504237369277718 0.08467720450543034 0
103 0.1504237369286845 0.9153227954941436 0
104 0.08261011954042195 0.5469233223492024 0
105 0.9173898804593043 0.4530766776513945 0
106 0.4500000000021522 0.9133974596220228 0
107 0.5000000000020598 0.826794919243991 0
108 0.6000000000016366 0.8267949192441503 0
109 0.5500000000018188 0.7401923788656761 0
110 0.450000000001607 0.7401923788648948 0
111 0.650000000001598 0.7401923788660085 0
112 0.6000000000019704 0.653589838487762 0
113 0.7000000000017508 0.653589838487961 0
114 0.7470993649064432 0.7385176964134499 0
115 0.8000000000015923 0.6535898384881703 0
116 0.2500706228224241 0.9137183489334904 0
117 0.3000117704716067 0.8268484007949711 0
118 0.1844729824734499 0.8185707090198736 0
119 0.2500000000010319 0.7401923788641998 0
120 0.3500019617464218 0.7402012924565172 0
121 0.3000000000009037 0.6535898384856578 0
122 0.2000000000008665 0.6535898384858083 0
123 0.400000000000885 0.6535898384855205 0
124 0.5000000000013295 0.6535898384862819 0
125 0.6499999999991045 0.08660254037865686 0
126 0.5999999999987675 0.1732050807570069 0
127 0.499999999998759 0.1732050807568498 0
128 0.5499999999986146 0.2598076211353103 0
129 0.4499999999986956 0.2598076211351372 0
130 0.6499999999986144 0.2598076211355719 0
131 0.4999999999985321 0.3464101615136086 0
132 0.3999999999986406 0.3464101615134557 0
133 0.3499999999987621 0.259807621134978 0
134 0.299999999998699 0.3464101615133494 0
135 0.2529006350936088 0.2614823035876902 0
136 0.1999999999986039 0.3464101615133011 0
137 0.6999999999989368 0.1732050807573301 0
138 0.7470993649041384 0.2614823035886252 0
139 0.6999999999981412 0.3464101615141314 0
140 0.7999999999980364 0.3464101615147011 0
141 0.8151849454016278 0.1819970608647019 0
142 0.8506980051542256 0.08465468751306802 0
143 0.8991553918760878 0.6535377034216604 0
144 0.9136316044647074 0.8548847302819405 0
145 0.915681605974404 0.5480257191923095 0
146 0.3004834391814943 0.1734841944986959 0
147 0.1007771982105899 0.3465790539737355 0
148 0.4499999999989438 0.08660254037841333 0
149 0.4000805731959534 0.1732515997137256 0
150 0.08430715903981896 0.4519937403741514 0
151 0.6498637830409466 0.9134761045207258 0
152 0.8997931476227867 0.3470185793513793 0
153 0.1002068523768968 0.6529814206490165 0
154 0.2501511960177391 0.08632817002314969 0
155 0.5999999999983366 0.346410161513713 0
156 0.6993576410316575 0.8266075578838155 0
157 0.1849662506158432 0.1817226905092691 0
158 0.4000022887042481 0.826805318434005 0
159 0.8138374579457246 0.8199631629925695 0
160 0.8490092303012733 0.9183882099841227 0
161 0.08318840360948307 0.8509037909364143 0
162 0.08324712600732853 0.1491311375793957 0
163 0.9169044142426817 0.1491611201220711 0
164 0.8393487875466934 0.4999999999986032 0
165 0.1606512124531819 0.5000000000020549 0
166 0.7476391151939359 0.5947306179099646 0
167 0.650000000001997 0.584933478489133 0
168 0.550000000002666 0.5849334784888979 0
169 0.4499999999984813 0.4150665215114718 0
170 0.3499999999985968 0.4150665215114058 0
171 0.5499999999983629 0.4150665215115436 0
172 0.4500000000016302 0.584933478488365 0
173 0.6499999999979515 0.4150665215116603 0
174 0.252360884806124 0.4052693820908497 0
175 0.7366899495184114 0.4193460192955941 0
176 0.3500000000007999 0.5849334784881498 0
177 0.2633100504807806 0.5806539807044981 0
178 0.8325961894319087 0.2698557158520641 0
179 0.1674038105678277 0.7301442841486432 0
180 0.8325961894326938 0.730144284149835 0
181 0.1674038105673746 0.2698557158515088 0
182 0.8253041500987854 0.5749806465017847 0
183 0.174682742418053 0.4250420563256821 0
184 0.823870294190872 0.4276419063019453 0
185 0.1761297058086913 0.5723580936984299 0
186 0.9267949192428531 0.9267949192428941 0
187 0.07320508075719248 0.9267949192428074 0
188 0.926794919242756 0.07320508075712377 0
189 0.07320508075662228 0.07320508075678341 0
190 0.9117650612886441 0.8071872987569431 0
191 0.863734531205216 0.8374239466372551 0
192 0.8618679880291527 0.7897265151122577 0
193 0.1370512974845277 0.7886216372454116 0
194 0.1338306930414665 0.834737249978144 0
195 0.08640900805254433 0.804788178203682 0
196 0.862777666452986 0.2116622476969691 0
197 0.8660446798221547 0.1655790904933865 0
198 0.9136374008735129 0.1952442773256537 0
199 0.1372979315556617 0.2115250625196307 0
200 0.08643836925140434 0.195229286054694 0
201 0.1341066883115859 0.1654269140443324 0
202 0.8232168236892092 0.7750537235712023 0
203 0.8712473537726373 0.7448170756908904 0
204 0.1285167115317166 0.7444084248097964 0
205 0.1759383965206388 0.7743574965842583 0
206 0.8714832884681265 0.2555915751906502 0
207 0.8238905674167682 0.225926388358383 0
208 0.1761850305916089 0.2257892031803889 0
209 0.1285167115314274 0.2555915751907506 0
210 0.3500000000006774 0.542466739244075 0
211 0.3066550252407902 0.5827937295963239 0
212 0.3066550252406678 0.5403269903522491 0
213 0.4500000000010232 0.5424667392441824 0
214 0.4000000000012151 0.5849334784882574 0
215 0.400000000000608 0.542466739244075 0
216 0.2566550252403903 0.5403269903522491 0
217 0.7000000000009985 0.5424667392445666 0
218 0.6500000000010678 0.5424667392445666 0
219 0.7488195575969679 0.5473653089549824 0
220 0.6988195575979664 0.5898320481995488 0
221 0.5500000000014718 0.5424667392444489 0
222 0.5000000000021481 0.5849334784886314 0
223 0.5000000000009539 0.5424667392441824 0
224 0.2999999999992984 0.4575332607557029 0
225 0.3499999999995759 0.4575332607557029 0
226 0.3999999999995181 0.4575332607557359 0
227 0.4499999999994487 0.4575332607557359 0
228 0.251180442403062 0.4526346910454249 0
229 0.3011804424023604 0.4101679518011278 0
230 0.4999999999993895 0.4575332607557718 0
231 0.5499999999993201 0.4575332607557718 0
232 0.4999999999984221 0.4150665215115077 0
233 0.3999999999985391 0.4150665215114387 0
234 0.6000000000023316 0.5849334784890154 0
235 0.6000000000014023 0.5424667392444489 0
236 0.5999999999991146 0.4575332607558301 0
237 0.6499999999990451 0.4575332607558301 0
238 0.5999999999981572 0.4150665215116019 0
239 0.693344974759275 0.4596730096477971 0
240 0.7433449747592057 0.4596730096477971 0
241 0.6933449747581815 0.4172062704036272 0
242 0.1674483597010672 0.8669467522570087 0
243 0.1168060702690838 0.883113293215279 0
244 0.8329414752779267 0.133325874188885 0
245 0.8838012096984535 0.1169079038175696 0
246 0.1676949937718075 0.1331999475073497 0
247 0.1168354314675502 0.116904171042413 0
248 0.8498965738104116 0.3467143704330402 0
249 0.8162980947149725 0.3081329386833826 0
250 0.8661946685273477 0.3084371476017217 0
251 0.1501034261888817 0.6532856295674124 0
252 0.1837019052843471 0.6918670613172258 0
253 0.1338053314723622 0.6915628523988299 0
254 0.8495776959388401 0.6535637709549154 0
255 0.8658757906543908 0.6918409937857477 0
256 0.816298094717143 0.6918670613190027 0
257 0.1503885991045969 0.3464946077435183 0
258 0.1340905043889823 0.3082173849126222 0
259 0.1837019052829892 0.308132938682405 0
260 0.8813204173829903 0.8866364701330316 0
261 0.8314233441234989 0.8691756864883462 0
262 0.219719878144736 0.5765060372014641 0
263 0.2130648529043457 0.5361790468492149 0
264 0.7802801218546417 0.4234939627987697 0
265 0.786935147095436 0.4638209531509727 0
266 0.7876520750493927 0.5374903232508923 0
267 0.7864716326463607 0.5848556322058747 0
268 0.2123413712090265 0.462521028162841 0
269 0.2135218136120885 0.4151557192082659 0
270 0.205325606226591 0.5000000000010274 0
271 0.1683904591309366 0.5361790468502424 0
272 0.7946743937733467 0.4999999999993016 0
273 0.8316095408687827 0.4638209531502743 0
274 0.8323264688227394 0.537490323250194 0
275 0.1676669774356175 0.4625210281638685 0
276 0.9045269549943342 0.7065137853268031 0
277 0.09491823243625119 0.7058269930599831 0
278 0.09520340535303504 0.293953244251864 0
279 0.9050817675635654 0.2941730069403078 0
280 0.8618317209068294 0.3873302428266623 0
281 0.8119351470944542 0.3870260339083232 0
282 0.1381682790927941 0.6126697571737232 0
283 0.1880648529047789 0.6129739660921192 0
284 0.8126520750501889 0.6142852424949775 0
285 0.8622297709874367 0.6142591749617226 0
286 0.1873413712083284 0.3857261089194916 0
287 0.1377299703143215 0.3858105551497088 0
288 0.4000009808740144 0.740196835660706 0
289 0.3750009808736534 0.6968955654710189 0
290 0.425000000001246 0.6968911086752076 0
291 0.4500000000011072 0.6535898384859012 0
292 0.4750000000014682 0.6968911086755883 0
293 0.3250068661090142 0.7835248466257442 0
294 0.3750021252253349 0.7835033054452611 0
295 0.3500070295879274 0.8268268596144881 0
296 0.4250011443529276 0.7834988486494499 0
297 0.5750000000018947 0.6968911086767191 0
298 0.5250000000015742 0.696891108675979 0
299 0.5500000000016499 0.653589838487022 0
300 0.5000000000017129 0.7401923788652854 0
301 0.8753490025769812 0.04232734375653401 0
302 0.8253490025768495 0.04232734375653401 0
303 0.325005885236624 0.8701229302083023 0
304 0.3750011443529447 0.8701013890278193 0
305 0.7749999999993992 0.04330127018937413 0
306 0.8003490025767752 0.08562861394590815 0
307 0.7825924727004764 0.1342998006217251 0
308 0.957840802987202 0.5740128595956282 0
309 0.957840802987202 0.5240128595955019 0
310 0.9586949402296521 0.4765383388250444 0
311 0.9165357432168542 0.500551198421852 0
312 0.3000353114120328 0.9135579042775619 0
313 0.2750411966470154 0.8702833748642307 0
314 0.6249999999986909 0.2165063509462894 0
315 0.6499999999988522 0.1732050807571685 0
316 0.6749999999987756 0.216506350946451 0
317 0.3750000000016529 0.9566987298108167 0
318 0.4000000000018968 0.9133974596218282 0
319 0.4250000000019083 0.9566987298110115 0
320 0.624999999998936 0.1299038105678319 0
321 0.6749999999990206 0.1299038105679935 0
322 0.217271802647937 0.866144528976682 0
323 0.2422423764725283 0.8227095549074224 0
324 0.2002471798755543 0.914520572213817 0
325 0.7249999999991309 0.1299038105680392 0
326 0.7575924727002823 0.177601070811016 0
327 0.9549492590562904 0.7297449336155779 0
328 0.949577695938044 0.6767688517104352 0
329 0.5749999999989103 0.0433012701892453 0
330 0.524999999998784 0.0433012701892453 0
331 0.5999999999989891 0.08660254037857373 0
332 0.5749999999988207 0.1299038105677487 0
333 0.3250000000014449 0.9566987298108167 0
334 0.2750353114118362 0.9568591744667452 0
335 0.7235496824515376 0.2173436921729776 0
336 0.6985496824513764 0.2606449623620986 0
337 0.9549492590562904 0.7797449336157096 0
338 0.9568158022323536 0.8274423651407069 0
339 0.3999999999987288 0.2598076211350576 0
340 0.3750402865973578 0.2165296104243518 0
341 0.4250402865973245 0.2165296104244314 0
342 0.6249999999990257 0.04330127018932843 0
343 0.1252118684645502 0.9576613977470718 0
344 0.1752118684647583 0.9576613977470718 0
345 0.05038859910529495 0.3732895269877 0
346 0.09254217862520443 0.3992863971739434 0
347 0.04215357951990948 0.4259968701879079 0
348 0.474999999998819 0.04330127018920667 0
349 0.4249999999989593 0.04330127018920667 0
350 0.2250353114116281 0.9568591744667452 0
351 0.949577695938044 0.6267688517103036 0
352 0.9074184989252458 0.6007817113069849 0
353 0.3749999999990207 0.0433012701891398 0
354 0.3999999999990051 0.08660254037834647 0
355 0.5499999999987633 0.1732050807569284 0
356 0.5249999999988164 0.1299038105676702 0
357 0.4749999999987273 0.2165063509459935 0
358 0.4500402865973562 0.1732283402352877 0
359 0.04481480624774008 0.2706637172656203 0
360 0.05038859910529495 0.3232895269874919 0
361 0.6999999999992148 0.08660254037870256 0
362 0.4999999999989088 0.08660254037845197 0
363 0.7235496824511398 0.3039462325513783 0
364 0.6749999999983778 0.3031088913248516 0
365 0.7249999999992676 0.04330127018937413 0
366 0.6749999999991573 0.04330127018932843 0
367 0.3252417195901282 0.216645907816837 0
368 0.3502820061887238 0.1733678971062108 0
369 0.9568158022323536 0.8774423651408386 0
370 0.3250009808736627 0.6968955654710876 0
371 0.3500000000008944 0.6535898384855892 0
372 0.2172364912372409 0.7793815439420366 0
373 0.2750058852363193 0.7835203898295855 0
374 0.3252417195902804 0.1300433674384877 0
375 0.3750402865975099 0.1299270700460026 0
376 0.04481480624774008 0.2206637172654123 0
377 0.574999999998691 0.2165063509461586 0
378 0.5249999999986867 0.2165063509460801 0
379 0.4999999999986551 0.2598076211352238 0
380 0.7735496824510875 0.3039462325516631 0
381 0.7499999999980889 0.3464101615144163 0
382 0.3014503175461855 0.2606449623613341 0
383 0.2766920371375515 0.217483249043193 0
384 0.2750000000009678 0.6968911086749288 0
385 0.2250000000009492 0.696891108675004 0
386 0.2500000000008851 0.653589838485733 0
387 0.5999999999986145 0.2598076211354411 0
388 0.5249999999985734 0.3031088913244595 0
389 0.4749999999986139 0.3031088913243729 0
390 0.3000009808737268 0.7401968356603585 0
391 0.7811421551528831 0.2217396822266635 0
392 0.4750000000021054 0.9566987298110115 0
393 0.4250011443532001 0.8701013890280138 0
394 0.4749999999988514 0.1299038105676316 0
395 0.4250402865974486 0.1299270700460695 0
396 0.04215357951990948 0.475996870188105 0
397 0.6499999999982389 0.3464101615139222 0
398 0.6249999999984754 0.3031088913246425 0
399 0.3249999999991664 0.0433012701891398 0
400 0.5749999999984756 0.3031088913245117 0
401 0.9586949402296521 0.4265383388251847 0
402 0.4499999999985864 0.3464101615135322 0
403 0.4249999999986681 0.3031088913242965 0
404 0.3749999999987014 0.3031088913242169 0
405 0.2753173175996167 0.1299061822609228 0
406 0.3000755980084028 0.08646535520071463 0
407 0.5250000000019093 0.8700961894330317 0
408 0.5500000000018481 0.8267949192440707 0
409 0.5750000000016977 0.8700961894331113 0
410 0.5250000000019088 0.9566987298110361 0
411 0.5750000000015729 0.9566987298110361 0
412 0.7245913491199716 0.9569346645069916 0
413 0.7745913491196248 0.9569346645069916 0
414 0.6249318915211668 0.9567380522603629 0
415 0.67493189152082 0.9567380522603629 0
416 0.9498965738113934 0.3735092896751771 0
417 0.9498965738113934 0.3235092896753229 0
418 0.6750000000016744 0.6968911086769848 0
419 0.723549682454097 0.6960537674507055 0
420 0.6985496824540206 0.7393550376397292 0
421 0.6250000000017841 0.6968911086768852 0
422 0.6500000000018606 0.6535898384878616 0
423 0.7500000000016716 0.6535898384880656 0
424 0.7735496824540178 0.69605376745081 0
425 0.9085915140410454 0.4000476285013869 0
426 0.2750755980085028 0.04316408501157484 0
427 0.2250755980086485 0.04316408501157484 0
428 0.1752118684636648 0.04233860225271517 0
429 0.1252118684637932 0.04233860225271517 0
430 0.955185193752172 0.2706637172642514 0
431 0.955185193752172 0.2206637172643971 0
432 0.6000000000017084 0.7401923788658423 0
433 0.5750000000017277 0.7834936490549131 0
434 0.6250000000016173 0.7834936490550795 0
435 0.3249999999987305 0.3031088913241637 0
436 0.2764503175461539 0.3039462325505198 0
437 0.5999318915213527 0.9134367820713991 0
438 0.5250000000019392 0.7834936490548335 0
439 0.4750000000018334 0.7834936490544429 0
440 0.5499999999984344 0.3464101615136608 0
441 0.6995232406400982 0.9136727167673545 0
442 0.6746107120363021 0.8700418312022706 0
443 0.7242701696354537 0.8702384434488993 0
444 0.6249318915212916 0.8701355118824381 0
445 0.04481480624780279 0.7293362827358215 0
446 0.04481480624780279 0.7793362827354747 0
447 0.2002874664727555 0.08550268726429001 0
448 0.3499999999986698 0.3464101615134025 0
449 0.2499999999986514 0.3464101615133253 0
450 0.2264503175461064 0.3039462325504957 0
451 0.2175587233167912 0.1340254302662094 0
452 0.0501034261884484 0.6264907103252018 0
453 0.0501034261884484 0.676490710324855 0
454 0.2427248448986687 0.1776034425039825 0
455 0.04130505977021098 0.5234616611756305 0
456 0.04130505977021098 0.5734616611752946 0
457 0.649678820516647 0.8267012385639829 0
458 0.7232285029690504 0.7825626271486327 0
459 0.6746788205166278 0.783399968374912 0
460 0.5000000000019555 0.9133974596220475 0
461 0.475000000002106 0.8700961894330068 0
462 0.218933442854726 0.2216024970484796 0
463 0.450001144353154 0.826800118838998 0
464 0.09140848595865939 0.5999523714991095 0
465 0.08345863929012046 0.4994585313616769 0
466 0.7565975494886911 0.8232853604381924 0
467 0.7815100780924872 0.8669162460032764 0
468 0.7804684114260839 0.7792404297030098 0
469 0.8245046151506366 0.9591941049920614 0
470 0.8745046151504284 0.9591941049920614 0
471 0.04159420180474153 0.8254518954682071 0
472 0.04159420180474153 0.875451895467999 0
473 0.04162356300366427 0.1245655687899059 0
474 0.04162356300366427 0.174565568790114 0
475 0.9584522071213408 0.1745805600608145 0
476 0.9584522071213408 0.1245805600609429 0
477 0.7990959642702615 0.916128769499053 0
478 0.7898477771680236 0.2656690097203446 0
479 0.2087019052844298 0.7351683315064215 0
480 0.2101522228304917 0.2656690097195995 0
481 0.7898477771695684 0.7343309902816424 0
482 0.8704928780365947 0.5615031828470471 0
483 0.129494950728936 0.4385178983499167 0
484 0.8706300873250881 0.4403592919766699 0
485 0.1293699126745566 0.5596407080238162 0
486 0.9133974596212183 0.9633974596214471 0
487 0.9633974596214265 0.9633974596214471 0
488 0.03660254037859624 0.9133974596211956 0
489 0.03660254037859624 0.9633974596214037 0
490 0.963397459621378 0.08660254037846922 0
491 0.963397459621378 0.03660254037856189 0
492 0.9133974596212464 0.03660254037856189 0
493 0.9633974596214265 0.9133974596213155 0
494 0.08660254037880424 0.9633974596214037 0
495 0.08660254037821848 0.0366025403783917 0
496 0.03660254037831114 0.0366025403783917 0
497 0.03660254037831114 0.08660254037859971 0
498 0.8775151967605487 0.5240128595954563 0
499 0.8783693340029988 0.4765383388249989 0
500 0.1224791857465004 0.4759968701881032 0
501 0.1216306659968019 0.5234616611756286 0
502 0.5250000000019978 0.6192616584875898 0
503 0.4750000000014798 0.6192616584873234 0
504 0.5750000000023182 0.6192616584883299 0
505 0.7238195575978433 0.6241602281989629 0
506 0.7738195575977641 0.6241602281990675 0
507 0.6750000000018739 0.6192616584885471 0
508 0.4250000000012576 0.6192616584869428 0
509 0.3750000000008424 0.6192616584868351 0
510 0.6250000000019837 0.6192616584884475 0
511 0.4749999999985067 0.3807383415125402 0
512 0.5249999999984475 0.3807383415125761 0
513 0.424999999998561 0.3807383415124638 0
514 0.3749999999986187 0.3807383415124307 0
515 0.5749999999983497 0.3807383415126283 0
516 0.3249999999986479 0.3807383415123776 0
517 0.6749999999980464 0.3807383415128959 0
518 0.6249999999981442 0.3807383415126867 0
519 0.7683449747582238 0.3828780904051476 0
520 0.7183449747582763 0.3828780904048628 0
521 0.2761804424024115 0.3758397718020995 0
522 0.3250000000008518 0.6192616584869037 0
523 0.226180442402364 0.3758397718020754 0
524 0.2316550252408235 0.6171219095951532 0
525 0.2816550252408422 0.617121909595078 0
526 0.07822610338197541 0.1111681091680896 0
527 0.9218496667427188 0.1111831004395974 0
528 0.8879020747720632 0.9225915646135084 0
529 0.07819674218333778 0.8888493550896108 0
530 0.8887464621984908 0.0789298841350959 0
531 0.1118144088429385 0.9210588573684755 0
532 0.9202132618537802 0.8908398247624173 0
533 0.111814408842197 0.07894114263110688 0
$EndNodes
$Elements
1074
1 1 2 2 1 12 11
2 1 2 2 1 11 20
3 1 2 2 1 20 10
4 1 2 2 1 10 19
5 1 2 2 1 19 9
6 1 2 2 1 9 18
7 1 2 2 1 18 8
8 1 2 2 1 8 17
9 1 2 2 1 17 7
10 1 2 2 1 7 16
11 1 2 2 1 16 6
12 1 2 2 1 6 15
13 1 2 2 1 15 5
14 1 2 2 1 5 14
15 1 2 2 1 14 4
16 1 2 2 1 4 13
17 1 2 2 1 13 3
18 1 2 2 1 3 1
19 1 2 2 1 1 2
20 1 2 2 1 2 21
21 1 2 4 2 21 22
22 1 2 4 2 22 41
23 1 2 4 2 41 31
24 1 2 4 2 31 40
25 1 2 4 2 40 30
26 1 2 4 2 30 39
27 1 2 4 2 39 29
28 1 2 4 2 29 38
29 1 2 4 2 38 28
30 1 2 4 2 28 37
31 1 2 4 2 37 27
32 1 2 4 2 27 36
33 1 2 4 2 36 26
34 1 2 4 2 26 35
35 1 2 4 2 35 25
36 1 2 4 2 25 34
37 1 2 4 2 34 24
38 1 2 4 2 24 33
39 1 2 4 2 33 23
40 1 2 4 2 23 32
41 1 2 1 3 32 42
42 1 2 1 3 42 61
43 1 2 1 3 61 51
44 1 2 1 3 51 60
45 1 2 1 3 60 50
46 1 2 1 3 50 59
47 1 2 1 3 59 49
48 1 2 1 3 49 58
49 1 2 1 3 58 48
50 1 2 1 3 48 57
51 1 2 1 3 57 47
52 1 2 1 3 47 56
53 1 2 1 3 56 46
54 1 2 1 3 46 55
55 1 2 1 3 55 45
56 1 2 1 3 45 54
57 1 2 1 3 54 44
58 1 2 1 3 44 53
59 1 2 1 3 53 43
60 1 2 1 3 43 52
61 1 2 3 4 52 62
62 1 2 3 4 62 72
63 1 2 3 4 72 71
64 1 2 3 4 71 80
65 1 2 3 4 80 70
66 1 2 3 4 70 79
67 1 2 3 4 79 69
68 1 2 3 4 69 78
69 1 2 3 4 78 68
70 1 2 3 4 68 77
71 1 2 3 4 77 67
72 1 2 3 4 67 76
73 1 2 3 4 76 66
74 1 2 3 4 66 75
75 1 2 3 4 75 65
76 1 2 3 4 65 74
77 1 2 3 4 74 64
78 1 2 3 4 64 73
79 1 2 3 4 73 63
80 1 2 3 4 63 12
81 1 2 5 5 81 87
82 1 2 5 5 87 83
83 1 2 5 5 83 88
84 1 2 5 5 88 84
85 1 2 5 5 84 89
86 1 2 5 5 89 85
87 1 2 5 5 85 90
88 1 2 5 5 90 86
89 1 2 5 5 86 91
90 1 2 5 5 91 82
91 2 2 6 1 100 190 192
92 2 2 6 1 190 191 192
93 2 2 6 1 190 144 191
94 2 2 6 1 192 191 159
95 2 2 6 1 98 193 195
96 2 2 6 1 193 194 195
97 2 2 6 1 193 118 194
98 2 2 6 1 195 194 161
99 2 2 6 1 101 196 198
100 2 2 6 1 196 197 198
101 2 2 6 1 196 141 197
102 2 2 6 1 198 197 163
103 2 2 6 1 157 199 201
104 2 2 6 1 199 200 201
105 2 2 6 1 199 99 200
106 2 2 6 1 201 200 162
107 2 2 6 1 100 192 203
108 2 2 6 1 192 202 203
109 2 2 6 1 192 159 202
110 2 2 6 1 203 202 180
111 2 2 6 1 118 193 205
112 2 2 6 1 193 204 205
113 2 2 6 1 193 98 204
114 2 2 6 1 205 204 179
115 2 2 6 1 141 196 207
116 2 2 6 1 196 206 207
117 2 2 6 1 196 101 206
118 2 2 6 1 207 206 178
119 2 2 6 1 99 199 209
120 2 2 6 1 199 208 209
121 2 2 6 1 199 157 208
122 2 2 6 1 209 208 181
123 2 2 6 1 83 210 212
124 2 2 6 1 210 211 212
125 2 2 6 1 210 176 211
126 2 2 6 1 212 211 177
127 2 2 6 1 84 213 215
128 2 2 6 1 213 214 215
129 2 2 6 1 213 172 214
130 2 2 6 1 215 214 176
131 2 2 6 1 83 88 210
132 2 2 6 1 88 215 210
133 2 2 6 1 88 84 215
134 2 2 6 1 210 215 176
135 2 2 6 1 81 87 216
136 2 2 6 1 87 212 216
137 2 2 6 1 87 83 212
138 2 2 6 1 216 212 177
139 2 2 6 1 86 91 218
140 2 2 6 1 91 217 218
141 2 2 6 1 91 82 217
142 2 2 6 1 218 217 167
143 2 2 6 1 82 219 217
144 2 2 6 1 219 220 217
145 2 2 6 1 219 166 220
146 2 2 6 1 217 220 167
147 2 2 6 1 85 221 223
148 2 2 6 1 221 222 223
149 2 2 6 1 221 168 222
150 2 2 6 1 223 222 172
151 2 2 6 1 84 89 213
152 2 2 6 1 89 223 213
153 2 2 6 1 89 85 223
154 2 2 6 1 213 223 172
155 2 2 6 1 83 87 225
156 2 2 6 1 87 224 225
157 2 2 6 1 87 81 224
158 2 2 6 1 225 224 170
159 2 2 6 1 84 88 227
160 2 2 6 1 88 226 227
161 2 2 6 1 88 83 226
162 2 2 6 1 227 226 169
163 2 2 6 1 170 224 229
164 2 2 6 1 224 228 229
165 2 2 6 1 224 81 228
166 2 2 6 1 229 228 174
167 2 2 6 1 85 89 231
168 2 2 6 1 89 230 231
169 2 2 6 1 89 84 230
170 2 2 6 1 231 230 171
171 2 2 6 1 84 227 230
172 2 2 6 1 227 232 230
173 2 2 6 1 227 169 232
174 2 2 6 1 230 232 171
175 2 2 6 1 169 226 233
176 2 2 6 1 226 225 233
177 2 2 6 1 226 83 225
178 2 2 6 1 233 225 170
179 2 2 6 1 86 218 235
180 2 2 6 1 218 234 235
181 2 2 6 1 218 167 234
182 2 2 6 1 235 234 168
183 2 2 6 1 85 90 221
184 2 2 6 1 90 235 221
185 2 2 6 1 90 86 235
186 2 2 6 1 221 235 168
187 2 2 6 1 86 90 237
188 2 2 6 1 90 236 237
189 2 2 6 1 90 85 236
190 2 2 6 1 237 236 173
191 2 2 6 1 85 231 236
192 2 2 6 1 231 238 236
193 2 2 6 1 231 171 238
194 2 2 6 1 236 238 173
195 2 2 6 1 82 91 240
196 2 2 6 1 91 239 240
197 2 2 6 1 91 86 239
198 2 2 6 1 240 239 175
199 2 2 6 1 86 237 239
200 2 2 6 1 237 241 239
201 2 2 6 1 237 173 241
202 2 2 6 1 239 241 175
203 2 2 6 1 118 242 194
204 2 2 6 1 242 243 194
205 2 2 6 1 242 103 243
206 2 2 6 1 194 243 161
207 2 2 6 1 141 244 197
208 2 2 6 1 244 245 197
209 2 2 6 1 244 142 245
210 2 2 6 1 197 245 163
211 2 2 6 1 102 246 247
212 2 2 6 1 246 201 247
213 2 2 6 1 246 157 201
214 2 2 6 1 247 201 162
215 2 2 6 1 152 248 250
216 2 2 6 1 248 249 250
217 2 2 6 1 248 140 249
218 2 2 6 1 250 249 178
219 2 2 6 1 153 251 253
220 2 2 6 1 251 252 253
221 2 2 6 1 251 122 252
222 2 2 6 1 253 252 179
223 2 2 6 1 115 254 256
224 2 2 6 1 254 255 256
225 2 2 6 1 254 143 255
226 2 2 6 1 256 255 180
227 2 2 6 1 136 257 259
228 2 2 6 1 257 258 259
229 2 2 6 1 257 147 258
230 2 2 6 1 259 258 181
231 2 2 6 1 159 191 261
232 2 2 6 1 191 260 261
233 2 2 6 1 191 144 260
234 2 2 6 1 261 260 160
235 2 2 6 1 81 216 263
236 2 2 6 1 216 262 263
237 2 2 6 1 216 177 262
238 2 2 6 1 263 262 185
239 2 2 6 1 82 240 265
240 2 2 6 1 240 264 265
241 2 2 6 1 240 175 264
242 2 2 6 1 265 264 184
243 2 2 6 1 166 219 267
244 2 2 6 1 219 266 267
245 2 2 6 1 219 82 266
246 2 2 6 1 267 266 182
247 2 2 6 1 174 228 269
248 2 2 6 1 228 268 269
249 2 2 6 1 228 81 268
250 2 2 6 1 269 268 183
251 2 2 6 1 165 270 271
252 2 2 6 1 270 263 271
253 2 2 6 1 270 81 263
254 2 2 6 1 271 263 185
255 2 2 6 1 164 272 273
256 2 2 6 1 272 265 273
257 2 2 6 1 272 82 265
258 2 2 6 1 273 265 184
259 2 2 6 1 82 272 266
260 2 2 6 1 272 274 266
261 2 2 6 1 272 164 274
262 2 2 6 1 266 274 182
263 2 2 6 1 81 270 268
264 2 2 6 1 270 275 268
265 2 2 6 1 270 165 275
266 2 2 6 1 268 275 183
267 2 2 6 1 143 276 255
268 2 2 6 1 276 203 255
269 2 2 6 1 276 100 203
270 2 2 6 1 255 203 180
271 2 2 6 1 98 277 204
272 2 2 6 1 277 253 204
273 2 2 6 1 277 153 253
274 2 2 6 1 204 253 179
275 2 2 6 1 147 278 258
276 2 2 6 1 278 209 258
277 2 2 6 1 278 99 209
278 2 2 6 1 258 209 181
279 2 2 6 1 101 279 206
280 2 2 6 1 279 250 206
281 2 2 6 1 279 152 250
282 2 2 6 1 206 250 178
283 2 2 6 1 140 248 281
284 2 2 6 1 248 280 281
285 2 2 6 1 248 152 280
286 2 2 6 1 281 280 184
287 2 2 6 1 122 251 283
288 2 2 6 1 251 282 283
289 2 2 6 1 251 153 282
290 2 2 6 1 283 282 185
291 2 2 6 1 143 254 285
292 2 2 6 1 254 284 285
293 2 2 6 1 254 115 284
294 2 2 6 1 285 284 182
295 2 2 6 1 147 257 287
296 2 2 6 1 257 286 287
297 2 2 6 1 257 136 286
298 2 2 6 1 287 286 183
299 2 2 6 1 110 288 290
300 2 2 6 1 288 289 290
301 2 2 6 1 288 120 289
302 2 2 6 1 290 289 123
303 2 2 6 1 110 290 292
304 2 2 6 1 290 291 292
305 2 2 6 1 290 123 291
306 2 2 6 1 292 291 124
307 2 2 6 1 117 293 295
308 2 2 6 1 293 294 295
309 2 2 6 1 293 120 294
310 2 2 6 1 295 294 158
311 2 2 6 1 120 288 294
312 2 2 6 1 288 296 294
313 2 2 6 1 288 110 296
314 2 2 6 1 294 296 158
315 2 2 6 1 112 297 299
316 2 2 6 1 297 298 299
317 2 2 6 1 297 109 298
318 2 2 6 1 299 298 124
319 2 2 6 1 109 300 298
320 2 2 6 1 300 292 298
321 2 2 6 1 300 110 292
322 2 2 6 1 298 292 124
323 2 2 6 1 13 3 302
324 2 2 6 1 3 301 302
325 2 2 6 1 3 1 301
326 2 2 6 1 302 301 142
327 2 2 6 1 97 303 304
328 2 2 6 1 303 295 304
329 2 2 6 1 303 117 295
330 2 2 6 1 304 295 158
331 2 2 6 1 96 305 306
332 2 2 6 1 305 302 306
333 2 2 6 1 305 13 302
334 2 2 6 1 306 302 142
335 2 2 6 1 141 307 244
336 2 2 6 1 307 306 244
337 2 2 6 1 307 96 306
338 2 2 6 1 244 306 142
339 2 2 6 1 37 27 309
340 2 2 6 1 27 308 309
341 2 2 6 1 27 36 308
342 2 2 6 1 309 308 145
343 2 2 6 1 105 310 311
344 2 2 6 1 310 309 311
345 2 2 6 1 310 37 309
346 2 2 6 1 311 309 145
347 2 2 6 1 97 312 303
348 2 2 6 1 312 313 303
349 2 2 6 1 312 116 313
350 2 2 6 1 303 313 117
351 2 2 6 1 130 314 316
352 2 2 6 1 314 315 316
353 2 2 6 1 314 126 315
354 2 2 6 1 316 315 137
355 2 2 6 1 56 317 319
356 2 2 6 1 317 318 319
357 2 2 6 1 317 97 318
358 2 2 6 1 319 318 106
359 2 2 6 1 126 320 315
360 2 2 6 1 320 321 315
361 2 2 6 1 320 125 321
362 2 2 6 1 315 321 137
363 2 2 6 1 117 313 323
364 2 2 6 1 313 322 323
365 2 2 6 1 313 116 322
366 2 2 6 1 323 322 118
367 2 2 6 1 116 324 322
368 2 2 6 1 324 242 322
369 2 2 6 1 324 103 242
370 2 2 6 1 322 242 118
371 2 2 6 1 137 325 326
372 2 2 6 1 325 307 326
373 2 2 6 1 325 96 307
374 2 2 6 1 326 307 141
375 2 2 6 1 35 327 328
376 2 2 6 1 327 276 328
377 2 2 6 1 327 100 276
378 2 2 6 1 328 276 143
379 2 2 6 1 16 6 330
380 2 2 6 1 6 329 330
381 2 2 6 1 6 15 329
382 2 2 6 1 330 329 95
383 2 2 6 1 95 331 332
384 2 2 6 1 331 320 332
385 2 2 6 1 331 125 320
386 2 2 6 1 332 320 126
387 2 2 6 1 97 333 312
388 2 2 6 1 333 334 312
389 2 2 6 1 333 55 334
390 2 2 6 1 312 334 116
391 2 2 6 1 130 316 336
392 2 2 6 1 316 335 336
393 2 2 6 1 316 137 335
394 2 2 6 1 336 335 138
395 2 2 6 1 100 337 190
396 2 2 6 1 337 338 190
397 2 2 6 1 337 34 338
398 2 2 6 1 190 338 144
399 2 2 6 1 129 339 341
400 2 2 6 1 339 340 341
401 2 2 6 1 339 133 340
402 2 2 6 1 341 340 149
403 2 2 6 1 95 329 331
404 2 2 6 1 329 342 331
405 2 2 6 1 329 15 342
406 2 2 6 1 331 342 125
407 2 2 6 1 54 44 344
408 2 2 6 1 44 343 344
409 2 2 6 1 44 53 343
410 2 2 6 1 344 343 103
411 2 2 6 1 76 345 347
412 2 2 6 1 345 346 347
413 2 2 6 1 345 147 346
414 2 2 6 1 347 346 150
415 2 2 6 1 17 7 349
416 2 2 6 1 7 348 349
417 2 2 6 1 7 16 348
418 2 2 6 1 349 348 148
419 2 2 6 1 54 344 350
420 2 2 6 1 344 324 350
421 2 2 6 1 344 103 324
422 2 2 6 1 350 324 116
423 2 2 6 1 35 25 327
424 2 2 6 1 25 337 327
425 2 2 6 1 25 34 337
426 2 2 6 1 327 337 100
427 2 2 6 1 36 351 308
428 2 2 6 1 351 352 308
429 2 2 6 1 351 143 352
430 2 2 6 1 308 352 145
431 2 2 6 1 94 353 354
432 2 2 6 1 353 349 354
433 2 2 6 1 353 17 349
434 2 2 6 1 354 349 148
435 2 2 6 1 95 332 356
436 2 2 6 1 332 355 356
437 2 2 6 1 332 126 355
438 2 2 6 1 356 355 127
439 2 2 6 1 127 357 358
440 2 2 6 1 357 341 358
441 2 2 6 1 357 129 341
442 2 2 6 1 358 341 149
443 2 2 6 1 75 359 360
444 2 2 6 1 359 278 360
445 2 2 6 1 359 99 278
446 2 2 6 1 360 278 147
447 2 2 6 1 125 361 321
448 2 2 6 1 361 325 321
449 2 2 6 1 361 96 325
450 2 2 6 1 321 325 137
451 2 2 6 1 16 330 348
452 2 2 6 1 330 362 348
453 2 2 6 1 330 95 362
454 2 2 6 1 348 362 148
455 2 2 6 1 130 336 364
456 2 2 6 1 336 363 364
457 2 2 6 1 336 138 363
458 2 2 6 1 364 363 139
459 2 2 6 1 14 365 366
460 2 2 6 1 365 361 366
461 2 2 6 1 365 96 361
462 2 2 6 1 366 361 125
463 2 2 6 1 133 367 340
464 2 2 6 1 367 368 340
465 2 2 6 1 367 146 368
466 2 2 6 1 340 368 149
467 2 2 6 1 34 24 338
468 2 2 6 1 24 369 338
469 2 2 6 1 24 33 369
470 2 2 6 1 338 369 144
471 2 2 6 1 36 26 351
472 2 2 6 1 26 328 351
473 2 2 6 1 26 35 328
474 2 2 6 1 351 328 143
475 2 2 6 1 120 370 289
476 2 2 6 1 370 371 289
477 2 2 6 1 370 121 371
478 2 2 6 1 289 371 123
479 2 2 6 1 15 5 342
480 2 2 6 1 5 366 342
481 2 2 6 1 5 14 366
482 2 2 6 1 342 366 125
483 2 2 6 1 117 323 373
484 2 2 6 1 323 372 373
485 2 2 6 1 323 118 372
486 2 2 6 1 373 372 119
487 2 2 6 1 146 374 368
488 2 2 6 1 374 375 368
489 2 2 6 1 374 94 375
490 2 2 6 1 368 375 149
491 2 2 6 1 75 65 359
492 2 2 6 1 65 376 359
493 2 2 6 1 65 74 376
494 2 2 6 1 359 376 99
495 2 2 6 1 127 355 378
496 2 2 6 1 355 377 378
497 2 2 6 1 355 126 377
498 2 2 6 1 378 377 128
499 2 2 6 1 127 378 357
500 2 2 6 1 378 379 357
501 2 2 6 1 378 128 379
502 2 2 6 1 357 379 129
503 2 2 6 1 139 363 381
504 2 2 6 1 363 380 381
505 2 2 6 1 363 138 380
506 2 2 6 1 381 380 140
507 2 2 6 1 56 46 317
508 2 2 6 1 46 333 317
509 2 2 6 1 46 55 333
510 2 2 6 1 317 333 97
511 2 2 6 1 133 382 367
512 2 2 6 1 382 383 367
513 2 2 6 1 382 135 383
514 2 2 6 1 367 383 146
515 2 2 6 1 55 45 334
516 2 2 6 1 45 350 334
517 2 2 6 1 45 54 350
518 2 2 6 1 334 350 116
519 2 2 6 1 76 66 345
520 2 2 6 1 66 360 345
521 2 2 6 1 66 75 360
522 2 2 6 1 345 360 147
523 2 2 6 1 14 4 365
524 2 2 6 1 4 305 365
525 2 2 6 1 4 13 305
526 2 2 6 1 365 305 96
527 2 2 6 1 121 384 386
528 2 2 6 1 384 385 386
529 2 2 6 1 384 119 385
530 2 2 6 1 386 385 122
531 2 2 6 1 128 377 387
532 2 2 6 1 377 314 387
533 2 2 6 1 377 126 314
534 2 2 6 1 387 314 130
535 2 2 6 1 129 379 389
536 2 2 6 1 379 388 389
537 2 2 6 1 379 128 388
538 2 2 6 1 389 388 131
539 2 2 6 1 120 390 370
540 2 2 6 1 390 384 370
541 2 2 6 1 390 119 384
542 2 2 6 1 370 384 121
543 2 2 6 1 138 335 391
544 2 2 6 1 335 326 391
545 2 2 6 1 335 137 326
546 2 2 6 1 391 326 141
547 2 2 6 1 57 47 392
548 2 2 6 1 47 319 392
549 2 2 6 1 47 56 319
550 2 2 6 1 392 319 106
551 2 2 6 1 106 318 393
552 2 2 6 1 318 304 393
553 2 2 6 1 318 97 304
554 2 2 6 1 393 304 158
555 2 2 6 1 95 356 362
556 2 2 6 1 356 394 362
557 2 2 6 1 356 127 394
558 2 2 6 1 362 394 148
559 2 2 6 1 117 373 293
560 2 2 6 1 373 390 293
561 2 2 6 1 373 119 390
562 2 2 6 1 293 390 120
563 2 2 6 1 94 354 375
564 2 2 6 1 354 395 375
565 2 2 6 1 354 148 395
566 2 2 6 1 375 395 149
567 2 2 6 1 77 67 396
568 2 2 6 1 67 347 396
569 2 2 6 1 67 76 347
570 2 2 6 1 396 347 150
571 2 2 6 1 130 364 398
572 2 2 6 1 364 397 398
573 2 2 6 1 364 139 397
574 2 2 6 1 398 397 155
575 2 2 6 1 18 8 399
576 2 2 6 1 8 353 399
577 2 2 6 1 8 17 353
578 2 2 6 1 399 353 94
579 2 2 6 1 128 387 400
580 2 2 6 1 387 398 400
581 2 2 6 1 387 130 398
582 2 2 6 1 400 398 155
583 2 2 6 1 38 28 401
584 2 2 6 1 28 310 401
585 2 2 6 1 28 37 310
586 2 2 6 1 401 310 105
587 2 2 6 1 148 394 395
588 2 2 6 1 394 358 395
589 2 2 6 1 394 127 358
590 2 2 6 1 395 358 149
591 2 2 6 1 129 389 403
592 2 2 6 1 389 402 403
593 2 2 6 1 389 131 402
594 2 2 6 1 403 402 132
595 2 2 6 1 129 403 339
596 2 2 6 1 403 404 339
597 2 2 6 1 403 132 404
598 2 2 6 1 339 404 133
599 2 2 6 1 94 374 406
600 2 2 6 1 374 405 406
601 2 2 6 1 374 146 405
602 2 2 6 1 406 405 154
603 2 2 6 1 93 407 409
604 2 2 6 1 407 408 409
605 2 2 6 1 407 107 408
606 2 2 6 1 409 408 108
607 2 2 6 1 58 48 411
608 2 2 6 1 48 410 411
609 2 2 6 1 48 57 410
610 2 2 6 1 411 410 93
611 2 2 6 1 60 50 413
612 2 2 6 1 50 412 413
613 2 2 6 1 50 59 412
614 2 2 6 1 413 412 92
615 2 2 6 1 59 49 415
616 2 2 6 1 49 414 415
617 2 2 6 1 49 58 414
618 2 2 6 1 415 414 151
619 2 2 6 1 39 29 417
620 2 2 6 1 29 416 417
621 2 2 6 1 29 38 416
622 2 2 6 1 417 416 152
623 2 2 6 1 111 418 420
624 2 2 6 1 418 419 420
625 2 2 6 1 418 113 419
626 2 2 6 1 420 419 114
627 2 2 6 1 111 421 418
628 2 2 6 1 421 422 418
629 2 2 6 1 421 112 422
630 2 2 6 1 418 422 113
631 2 2 6 1 114 419 424
632 2 2 6 1 419 423 424
633 2 2 6 1 419 113 423
634 2 2 6 1 424 423 115
635 2 2 6 1 38 401 416
636 2 2 6 1 401 425 416
637 2 2 6 1 401 105 425
638 2 2 6 1 416 425 152
639 2 2 6 1 18 399 426
640 2 2 6 1 399 406 426
641 2 2 6 1 399 94 406
642 2 2 6 1 426 406 154
643 2 2 6 1 19 9 427
644 2 2 6 1 9 426 427
645 2 2 6 1 9 18 426
646 2 2 6 1 427 426 154
647 2 2 6 1 20 10 429
648 2 2 6 1 10 428 429
649 2 2 6 1 10 19 428
650 2 2 6 1 429 428 102
651 2 2 6 1 40 30 431
652 2 2 6 1 30 430 431
653 2 2 6 1 30 39 430
654 2 2 6 1 431 430 101
655 2 2 6 1 111 432 421
656 2 2 6 1 432 297 421
657 2 2 6 1 432 109 297
658 2 2 6 1 421 297 112
659 2 2 6 1 108 433 434
660 2 2 6 1 433 432 434
661 2 2 6 1 433 109 432
662 2 2 6 1 434 432 111
663 2 2 6 1 133 435 382
664 2 2 6 1 435 436 382
665 2 2 6 1 435 134 436
666 2 2 6 1 382 436 135
667 2 2 6 1 58 411 414
668 2 2 6 1 411 437 414
669 2 2 6 1 411 93 437
670 2 2 6 1 414 437 151
671 2 2 6 1 109 438 300
672 2 2 6 1 438 439 300
673 2 2 6 1 438 107 439
674 2 2 6 1 300 439 110
675 2 2 6 1 131 388 440
676 2 2 6 1 388 400 440
677 2 2 6 1 388 128 400
678 2 2 6 1 440 400 155
679 2 2 6 1 92 412 441
680 2 2 6 1 412 415 441
681 2 2 6 1 412 59 415
682 2 2 6 1 441 415 151
683 2 2 6 1 92 441 443
684 2 2 6 1 441 442 443
685 2 2 6 1 441 151 442
686 2 2 6 1 443 442 156
687 2 2 6 1 108 408 433
688 2 2 6 1 408 438 433
689 2 2 6 1 408 107 438
690 2 2 6 1 433 438 109
691 2 2 6 1 93 409 437
692 2 2 6 1 409 444 437
693 2 2 6 1 409 108 444
694 2 2 6 1 437 444 151
695 2 2 6 1 101 430 279
696 2 2 6 1 430 417 279
697 2 2 6 1 430 39 417
698 2 2 6 1 279 417 152
699 2 2 6 1 80 70 446
700 2 2 6 1 70 445 446
701 2 2 6 1 70 79 445
702 2 2 6 1 446 445 98
703 2 2 6 1 102 428 447
704 2 2 6 1 428 427 447
705 2 2 6 1 428 19 427
706 2 2 6 1 447 427 154
707 2 2 6 1 133 404 435
708 2 2 6 1 404 448 435
709 2 2 6 1 404 132 448
710 2 2 6 1 435 448 134
711 2 2 6 1 135 436 450
712 2 2 6 1 436 449 450
713 2 2 6 1 436 134 449
714 2 2 6 1 450 449 136
715 2 2 6 1 102 447 246
716 2 2 6 1 447 451 246
717 2 2 6 1 447 154 451
718 2 2 6 1 246 451 157
719 2 2 6 1 79 69 453
720 2 2 6 1 69 452 453
721 2 2 6 1 69 78 452
722 2 2 6 1 453 452 153
723 2 2 6 1 154 405 451
724 2 2 6 1 405 454 451
725 2 2 6 1 405 146 454
726 2 2 6 1 451 454 157
727 2 2 6 1 78 68 456
728 2 2 6 1 68 455 456
729 2 2 6 1 68 77 455
730 2 2 6 1 456 455 104
731 2 2 6 1 151 444 442
732 2 2 6 1 444 457 442
733 2 2 6 1 444 108 457
734 2 2 6 1 442 457 156
735 2 2 6 1 111 420 459
736 2 2 6 1 420 458 459
737 2 2 6 1 420 114 458
738 2 2 6 1 459 458 156
739 2 2 6 1 93 460 407
740 2 2 6 1 460 461 407
741 2 2 6 1 460 106 461
742 2 2 6 1 407 461 107
743 2 2 6 1 93 410 460
744 2 2 6 1 410 392 460
745 2 2 6 1 410 57 392
746 2 2 6 1 460 392 106
747 2 2 6 1 98 445 277
748 2 2 6 1 445 453 277
749 2 2 6 1 445 79 453
750 2 2 6 1 277 453 153
751 2 2 6 1 146 383 454
752 2 2 6 1 383 462 454
753 2 2 6 1 383 135 462
754 2 2 6 1 454 462 157
755 2 2 6 1 108 434 457
756 2 2 6 1 434 459 457
757 2 2 6 1 434 111 459
758 2 2 6 1 457 459 156
759 2 2 6 1 107 461 463
760 2 2 6 1 461 393 463
761 2 2 6 1 461 106 393
762 2 2 6 1 463 393 158
763 2 2 6 1 110 439 296
764 2 2 6 1 439 463 296
765 2 2 6 1 439 107 463
766 2 2 6 1 296 463 158
767 2 2 6 1 78 456 452
768 2 2 6 1 456 464 452
769 2 2 6 1 456 104 464
770 2 2 6 1 452 464 153
771 2 2 6 1 104 455 465
772 2 2 6 1 455 396 465
773 2 2 6 1 455 77 396
774 2 2 6 1 465 396 150
775 2 2 6 1 92 443 467
776 2 2 6 1 443 466 467
777 2 2 6 1 443 156 466
778 2 2 6 1 467 466 159
779 2 2 6 1 156 458 466
780 2 2 6 1 458 468 466
781 2 2 6 1 458 114 468
782 2 2 6 1 466 468 159
783 2 2 6 1 61 51 470
784 2 2 6 1 51 469 470
785 2 2 6 1 51 60 469
786 2 2 6 1 470 469 160
787 2 2 6 1 72 71 472
788 2 2 6 1 71 471 472
789 2 2 6 1 71 80 471
790 2 2 6 1 472 471 161
791 2 2 6 1 74 64 474
792 2 2 6 1 64 473 474
793 2 2 6 1 64 73 473
794 2 2 6 1 474 473 162
795 2 2 6 1 41 31 476
796 2 2 6 1 31 475 476
797 2 2 6 1 31 40 475
798 2 2 6 1 476 475 163
799 2 2 6 1 92 467 477
800 2 2 6 1 467 261 477
801 2 2 6 1 467 159 261
802 2 2 6 1 477 261 160
803 2 2 6 1 60 413 469
804 2 2 6 1 413 477 469
805 2 2 6 1 413 92 477
806 2 2 6 1 469 477 160
807 2 2 6 1 80 446 471
808 2 2 6 1 446 195 471
809 2 2 6 1 446 98 195
810 2 2 6 1 471 195 161
811 2 2 6 1 99 376 200
812 2 2 6 1 376 474 200
813 2 2 6 1 376 74 474
814 2 2 6 1 200 474 162
815 2 2 6 1 40 431 475
816 2 2 6 1 431 198 475
817 2 2 6 1 431 101 198
818 2 2 6 1 475 198 163
819 2 2 6 1 138 391 478
820 2 2 6 1 391 207 478
821 2 2 6 1 391 141 207
822 2 2 6 1 478 207 178
823 2 2 6 1 119 372 479
824 2 2 6 1 372 205 479
825 2 2 6 1 372 118 205
826 2 2 6 1 479 205 179
827 2 2 6 1 157 462 208
828 2 2 6 1 462 480 208
829 2 2 6 1 462 135 480
830 2 2 6 1 208 480 181
831 2 2 6 1 159 468 202
832 2 2 6 1 468 481 202
833 2 2 6 1 468 114 481
834 2 2 6 1 202 481 180
835 2 2 6 1 145 352 482
836 2 2 6 1 352 285 482
837 2 2 6 1 352 143 285
838 2 2 6 1 482 285 182
839 2 2 6 1 150 346 483
840 2 2 6 1 346 287 483
841 2 2 6 1 346 147 287
842 2 2 6 1 483 287 183
843 2 2 6 1 152 425 280
844 2 2 6 1 425 484 280
845 2 2 6 1 425 105 484
846 2 2 6 1 280 484 184
847 2 2 6 1 153 464 282
848 2 2 6 1 464 485 282
849 2 2 6 1 464 104 485
850 2 2 6 1 282 485 185
851 2 2 6 1 32 42 487
852 2 2 6 1 42 486 487
853 2 2 6 1 42 61 486
854 2 2 6 1 487 486 186
855 2 2 6 1 52 62 489
856 2 2 6 1 62 488 489
857 2 2 6 1 62 72 488
858 2 2 6 1 489 488 187
859 2 2 6 1 21 22 491
860 2 2 6 1 22 490 491
861 2 2 6 1 22 41 490
862 2 2 6 1 491 490 188
863 2 2 6 1 1 2 492
864 2 2 6 1 2 491 492
865 2 2 6 1 2 21 491
866 2 2 6 1 492 491 188
867 2 2 6 1 33 23 493
868 2 2 6 1 23 487 493
869 2 2 6 1 23 32 487
870 2 2 6 1 493 487 186
871 2 2 6 1 53 43 494
872 2 2 6 1 43 489 494
873 2 2 6 1 43 52 489
874 2 2 6 1 494 489 187
875 2 2 6 1 12 11 496
876 2 2 6 1 11 495 496
877 2 2 6 1 11 20 495
878 2 2 6 1 496 495 189
879 2 2 6 1 73 63 497
880 2 2 6 1 63 496 497
881 2 2 6 1 63 12 496
882 2 2 6 1 497 496 189
883 2 2 6 1 105 311 499
884 2 2 6 1 311 498 499
885 2 2 6 1 311 145 498
886 2 2 6 1 499 498 164
887 2 2 6 1 104 465 501
888 2 2 6 1 465 500 501
889 2 2 6 1 465 150 500
890 2 2 6 1 501 500 165
891 2 2 6 1 168 502 222
892 2 2 6 1 502 503 222
893 2 2 6 1 502 124 503
894 2 2 6 1 222 503 172
895 2 2 6 1 112 299 504
896 2 2 6 1 299 502 504
897 2 2 6 1 299 124 502
898 2 2 6 1 504 502 168
899 2 2 6 1 115 423 506
900 2 2 6 1 423 505 506
901 2 2 6 1 423 113 505
902 2 2 6 1 506 505 166
903 2 2 6 1 166 505 220
904 2 2 6 1 505 507 220
905 2 2 6 1 505 113 507
906 2 2 6 1 220 507 167
907 2 2 6 1 172 508 214
908 2 2 6 1 508 509 214
909 2 2 6 1 508 123 509
910 2 2 6 1 214 509 176
911 2 2 6 1 113 422 507
912 2 2 6 1 422 510 507
913 2 2 6 1 422 112 510
914 2 2 6 1 507 510 167
915 2 2 6 1 124 291 503
916 2 2 6 1 291 508 503
917 2 2 6 1 291 123 508
918 2 2 6 1 503 508 172
919 2 2 6 1 167 510 234
920 2 2 6 1 510 504 234
921 2 2 6 1 510 112 504
922 2 2 6 1 234 504 168
923 2 2 6 1 169 511 232
924 2 2 6 1 511 512 232
925 2 2 6 1 511 131 512
926 2 2 6 1 232 512 171
927 2 2 6 1 132 402 513
928 2 2 6 1 402 511 513
929 2 2 6 1 402 131 511
930 2 2 6 1 513 511 169
931 2 2 6 1 132 513 514
932 2 2 6 1 513 233 514
933 2 2 6 1 513 169 233
934 2 2 6 1 514 233 170
935 2 2 6 1 131 440 512
936 2 2 6 1 440 515 512
937 2 2 6 1 440 155 515
938 2 2 6 1 512 515 171
939 2 2 6 1 134 448 516
940 2 2 6 1 448 514 516
941 2 2 6 1 448 132 514
942 2 2 6 1 516 514 170
943 2 2 6 1 155 397 518
944 2 2 6 1 397 517 518
945 2 2 6 1 397 139 517
946 2 2 6 1 518 517 173
947 2 2 6 1 139 381 520
948 2 2 6 1 381 519 520
949 2 2 6 1 381 140 519
950 2 2 6 1 520 519 175
951 2 2 6 1 134 516 521
952 2 2 6 1 516 229 521
953 2 2 6 1 516 170 229
954 2 2 6 1 521 229 174
955 2 2 6 1 123 371 509
956 2 2 6 1 371 522 509
957 2 2 6 1 371 121 522
958 2 2 6 1 509 522 176
959 2 2 6 1 136 449 523
960 2 2 6 1 449 521 523
961 2 2 6 1 449 134 521
962 2 2 6 1 523 521 174
963 2 2 6 1 173 517 241
964 2 2 6 1 517 520 241
965 2 2 6 1 517 139 520
966 2 2 6 1 241 520 175
967 2 2 6 1 171 515 238
968 2 2 6 1 515 518 238
969 2 2 6 1 515 155 518
970 2 2 6 1 238 518 173
971 2 2 6 1 121 386 525
972 2 2 6 1 386 524 525
973 2 2 6 1 386 122 524
974 2 2 6 1 525 524 177
975 2 2 6 1 176 522 211
976 2 2 6 1 522 525 211
977 2 2 6 1 522 121 525
978 2 2 6 1 211 525 177
979 2 2 6 1 140 380 249
980 2 2 6 1 380 478 249
981 2 2 6 1 380 138 478
982 2 2 6 1 249 478 178
983 2 2 6 1 122 385 252
984 2 2 6 1 385 479 252
985 2 2 6 1 385 119 479
986 2 2 6 1 252 479 179
987 2 2 6 1 114 424 481
988 2 2 6 1 424 256 481
989 2 2 6 1 424 115 256
990 2 2 6 1 481 256 180
991 2 2 6 1 135 450 480
992 2 2 6 1 450 259 480
993 2 2 6 1 450 136 259
994 2 2 6 1 480 259 181
995 2 2 6 1 162 473 526
996 2 2 6 1 473 497 526
997 2 2 6 1 473 73 497
998 2 2 6 1 526 497 189
999 2 2 6 1 41 476 490
1000 2 2 6 1 476 527 490
1001 2 2 6 1 476 163 527
1002 2 2 6 1 490 527 188
1003 2 2 6 1 61 470 486
1004 2 2 6 1 470 528 486
1005 2 2 6 1 470 160 528
1006 2 2 6 1 486 528 186
1007 2 2 6 1 72 472 488
1008 2 2 6 1 472 529 488
1009 2 2 6 1 472 161 529
1010 2 2 6 1 488 529 187
1011 2 2 6 1 142 301 530
1012 2 2 6 1 301 492 530
1013 2 2 6 1 301 1 492
1014 2 2 6 1 530 492 188
1015 2 2 6 1 103 343 531
1016 2 2 6 1 343 494 531
1017 2 2 6 1 343 53 494
1018 2 2 6 1 531 494 187
1019 2 2 6 1 144 369 532
1020 2 2 6 1 369 493 532
1021 2 2 6 1 369 33 493
1022 2 2 6 1 532 493 186
1023 2 2 6 1 20 429 495
1024 2 2 6 1 429 533 495
1025 2 2 6 1 429 102 533
1026 2 2 6 1 495 533 189
1027 2 2 6 1 102 247 533
1028 2 2 6 1 247 526 533
1029 2 2 6 1 247 162 526
1030 2 2 6 1 533 526 189
1031 2 2 6 1 160 260 528
1032 2 2 6 1 260 532 528
1033 2 2 6 1 260 144 532
1034 2 2 6 1 528 532 186
1035 2 2 6 1 161 243 529
1036 2 2 6 1 243 531 529
1037 2 2 6 1 243 103 531
1038 2 2 6 1 529 531 187
1039 2 2 6 1 163 245 527
1040 2 2 6 1 245 530 527
1041 2 2 6 1 245 142 530
1042 2 2 6 1 527 530 188
1043 2 2 6 1 175 519 264
1044 2 2 6 1 519 281 264
1045 2 2 6 1 519 140 281
1046 2 2 6 1 264 281 184
1047 2 2 6 1 177 524 262
1048 2 2 6 1 524 283 262
1049 2 2 6 1 524 122 283
1050 2 2 6 1 262 283 185
1051 2 2 6 1 115 506 284
1052 2 2 6 1 506 267 284
1053 2 2 6 1 506 166 267
1054 2 2 6 1 284 267 182
1055 2 2 6 1 136 523 286
1056 2 2 6 1 523 269 286
1057 2 2 6 1 523 174 269
1058 2 2 6 1 286 269 183
1059 2 2 6 1 164 498 274
1060 2 2 6 1 498 482 274
1061 2 2 6 1 498 145 482
1062 2 2 6 1 274 482 182
1063 2 2 6 1 165 500 275
1064 2 2 6 1 500 483 275
1065 2 2 6 1 500 150 483
1066 2 2 6 1 275 483 183
1067 2 2 6 1 105 499 484
1068 2 2 6 1 499 273 484
1069 2 2 6 1 499 164 273
1070 2 2 6 1 484 273 184
1071 2 2 6 1 104 501 485
1072 2 2 6 1 501 271 485
1073 2 2 6 1 501 165 271
1074 2 2 6 1 485 271 185
$EndElements
